<svg xmlns="http://www.w3.org/2000/svg" xmlns:xlink="http://www.w3.org/1999/xlink" id="Layer_1" x="0" y="0" version="1.1" viewBox="0 0 93.5 88.8" xml:space="preserve" style="enable-background:new 0 0 93.5 88.8"><style type="text/css">.st0{fill:#fff}</style><path d="M91,88.8H2.5c-0.7,0-1.4-0.3-1.8-0.8C0.2,87.4,0,86.7,0,86c1.4-17.5,16.4-31.3,34-31.3h25.5	c17.6,0,32.6,13.7,34,31.3c0.1,0.7-0.2,1.4-0.7,1.9C92.4,88.5,91.7,88.8,91,88.8z M5.3,83.8h82.8c-2.4-13.7-14.5-24-28.7-24H34	C19.9,59.8,7.8,70.1,5.3,83.8z M46.8,51.8c-11.6,0-21.1-9.5-21.1-21.1v-9.5C25.6,9.5,35.1,0,46.8,0s21.1,9.5,21.1,21.1v9.5	c0,1.4-1.1,2.5-2.5,2.5s-2.5-1.1-2.5-2.5v-9.5C62.9,12.2,55.6,5,46.8,5s-16.1,7.2-16.1,16.1v9.5c0,8.9,7.2,16.1,16.1,16.1	c5.6,0,11-3,13.9-7.9c0.7-1.2,2.2-1.6,3.4-0.9c1.2,0.7,1.6,2.2,0.9,3.4C61.1,47.8,54.2,51.8,46.8,51.8z" class="st0"/></svg>