<?xml version="1.0" encoding="utf-8"?>
<!-- Generator: Adobe Illustrator 21.1.0, SVG Export Plug-In . SVG Version: 6.00 Build 0)  -->
<svg version="1.1" id="Layer_1" xmlns="http://www.w3.org/2000/svg" xmlns:xlink="http://www.w3.org/1999/xlink" x="0px" y="0px"
	 viewBox="0 0 116 116" style="enable-background:new 0 0 116 116;" xml:space="preserve">
<style type="text/css">
	.st0{fill:none;stroke:#000000;stroke-width:5;stroke-miterlimit:10;}
</style>
<path d="M92.8,93H23.9c-0.5,0-1.1-0.2-1.4-0.6C22.1,92,22,91.4,22,90.9c1.1-13.6,12.7-24.3,26.4-24.3h19.8
	c13.7,0,25.3,10.7,26.4,24.3c0,0.5-0.1,1.1-0.5,1.5C93.8,92.8,93.3,93,92.8,93z M26.2,89.1h64.4c-1.9-10.6-11.3-18.7-22.3-18.7H48.4
	C37.5,70.5,28.1,78.5,26.2,89.1z M58.4,64.2c-9.1,0-16.4-7.4-16.4-16.4v-7.4c0-9.1,7.4-16.4,16.4-16.4s16.4,7.4,16.4,16.4v7.4
	c0,1.1-0.9,1.9-1.9,1.9s-1.9-0.9-1.9-1.9v-7.4c0-6.9-5.6-12.5-12.5-12.5s-12.5,5.6-12.5,12.5v7.4c0,6.9,5.6,12.5,12.5,12.5
	c4.4,0,8.5-2.3,10.8-6.1c0.6-0.9,3.9,1.1,3.3,2C69.5,61.2,64.1,64.2,58.4,64.2z"/>
<circle class="st0" cx="58" cy="58" r="55.5"/>
</svg>
