<?xml version="1.0" encoding="utf-8"?>
<!-- Generator: Adobe Illustrator 21.1.0, SVG Export Plug-In . SVG Version: 6.00 Build 0)  -->
<svg version="1.1" id="Layer_1" xmlns="http://www.w3.org/2000/svg" xmlns:xlink="http://www.w3.org/1999/xlink" x="0px" y="0px"
	 viewBox="0 0 465.5 119.8" style="enable-background:new 0 0 465.5 119.8;" xml:space="preserve">
<style type="text/css">
	.st0{fill:#FFFFFF;}
</style>
<g>
	<path class="st0" d="M95.3,119.8c-0.8-1.9-2-3.8-2.5-5.8c-6-25.4-12-50.8-17.9-76.3c-0.6-2.8-1.9-4.5-5-4.5c-2.8,0-4-1.3-4-4.2
		c-0.1-7.8-0.2-7.8,7.7-7.8c7.7,0,15.4,0,23.1,0c4.7,0,5.1,0.4,5.1,5c0,1,0,2,0,3.1c0.1,2.4-0.9,3.7-3.4,4.1
		c-4.8,0.8-5.4,1.9-4.4,6.7c3.3,15.6,6.6,31.2,9.9,46.8c0.1,0.4,0.2,0.8,0.7,2.2c0.7-2.3,1.3-3.7,1.7-5.1
		c5.4-19.6,10.8-39.2,16.1-58.9c0.7-2.8,2-4,4.9-3.9c13,0.3,9.9-1.9,13.4,10.1c5.2,18.1,10.1,36.4,15.1,54.6
		c0.2,0.8,0.6,1.6,1.3,3.4c1.5-7.2,2.9-13.5,4.2-19.8c2-9.7,4-19.5,6.1-29.2c1-5,0.5-6-4.6-6.9c-2.3-0.4-3.3-1.6-3.4-3.9
		c-0.4-7.9-0.1-8.3,7.7-8.3c7.9,0,15.9,0,23.8,0c3.8,0,4.5,0.7,4.6,4.6c0,1.2,0,2.5,0,3.7c-0.1,2.3-1.2,3.7-3.5,3.7
		c-3.7-0.1-5,2-5.7,5.3c-5.8,25.3-11.7,50.7-17.7,76c-0.4,1.9-1.6,3.6-2.5,5.4c-5.2,0-10.4,0-15.6,0c-0.8-1.4-1.9-2.8-2.3-4.3
		c-4.7-16.7-9.3-33.5-14-50.3c-0.9-3.4-2-6.8-3-10.2c-1.2,1.2-1.6,2.5-1.9,3.7c-5.2,18.8-10.4,37.7-15.7,56.5
		c-0.5,1.6-1.7,3.1-2.5,4.6C105.7,119.8,100.5,119.8,95.3,119.8z"/>
	<path class="st0" d="M245,119.8c-3.3-3.1-1.9-7-1.5-10.5c0.1-0.9,2.4-1.8,3.9-2.2c5-1.3,5.2-1.4,5.2-6.6c0-11.9-0.1-23.8,0.1-35.7
		c0.1-3.6-1.5-5.1-4.8-5.7c-5.4-0.9-7.9-5.9-5.4-10.9c0.5-0.9,2.1-1.7,3.3-1.8c7.1-0.2,14.3-0.2,21.4,0c1.3,0,3,1.4,3.6,2.6
		c1.8,3.5,3.3,4,6.6,1.5c10.2-8,24.8-7.4,32.7,1.4c4.7,5.3,6,11.9,6.1,18.6c0.2,10.4,0.1,20.8,0.1,31.3c0,2.9,1.3,4.2,3.9,5
		c1.9,0.6,5,1.5,5.2,2.7c0.5,3.3,1.8,7.2-1.5,10.1c-11.3,0-22.7,0-34,0c-0.5-2.7-1.2-5.4-1.6-8.1c-0.6-4.3,2.9-4.4,5.7-5.2
		c2.3-0.6,2.8-2.3,2.8-4.4c0-9.7,0.1-19.5-0.1-29.2c-0.2-9.7-6.3-14.4-15.8-12.4c-6.1,1.3-8.9,4.7-8.9,10.8c0,10.1,0.1,20.2,0,30.2
		c0,3.1,1.1,4.8,4.2,5.6c1.4,0.3,3.4,1.5,3.6,2.5c0.5,3.4,1.6,7.2-1.5,10.2C267.2,119.8,256.1,119.8,245,119.8z"/>
	<path class="st0" d="M0,47c0.4-1.3,0.8-2.5,1.1-3.8C4,30.5,15.8,20.5,28.9,20.1c5.2-0.1,10.5-0.1,15.5,1.1
		c22.2,5.1,26.4,29,16.7,43.2C55.3,73,48,80.6,41.3,88.5c-3.8,4.5-7.9,8.7-11.9,13.1c-0.7,0.8-1.3,1.7-2.3,3
		c1.5,0.2,2.3,0.5,3.1,0.5c6.1,0,12.2,0.1,18.4,0c4,0,5.2-1.3,5.5-5.3c0.2-3.8,1.2-4.8,4.9-4.9c11.4-0.2,9.5,0.5,9.6,9.2
		c0,3.6,0.2,7.3-0.1,10.9c-0.1,1.6-1.2,3.2-1.8,4.8c-20.9,0-41.7,0-62.6,0c-2.9-3.3-2.8-12.1,0.2-15.3
		c10.4-11.2,20.9-22.3,31.2-33.7c4.7-5.2,9-10.8,10.8-17.9c1.9-7.6-1.5-15.4-7.7-17.7c-8.9-3.3-17.6,2-18.9,11.7
		c-0.5,3.4-1.9,4.7-5.3,4.6C9.5,51.4,4.8,51.6,0,51.7C0,50.1,0,48.6,0,47z"/>
	<path class="st0" d="M465.4,2.7c-0.5,2.7-1.1,5.5-1.4,8.2c-0.8,7.2-1.7,14.4-2.1,21.6c-0.2,4.9-2.3,8.4-6.3,10.5
		c-8,4.2-16.2,8.1-24.4,11.8c-8.4,3.7-17,7-25.4,10.6c-4.9,2.1-9.1,5.2-11.6,11.1c-1.9-7.4-3.4-14-5.3-20.5
		c-2.9-10.2-0.6-12.9,9.2-16.2c14.8-5.1,29.4-10.5,42.9-18.7c9.1-5.5,17.5-11.8,23.2-21.1C466.7-0.2,464.8,1.9,465.4,2.7z"/>
	<path class="st0" d="M200.7,119.8c-1.7-1.8-3-9-1.5-10.7c0.9-1.1,2.6-1.7,4.1-2c4.5-1.1,5-1.6,5-6.1c0-11.9,0-23.8,0-35.7
		c0-4.5-0.7-5.2-5-6.2c-1.8-0.4-4.7-1.2-5-2.4c-0.7-2.7-0.4-5.8,0-8.7c0.1-0.7,1.9-1.5,3-1.5c7.6-0.1,15.2-0.1,22.8-0.1
		c3.3,0,3.8,2.1,3.7,4.8c0,16.4,0,32.9,0,49.3c0,5.2,0.2,5.6,5.2,6.5c3.3,0.6,4.6,2.3,4.4,5.6c-0.2,2.5,0.5,5.3-2,7.2
		C223.9,119.8,212.3,119.8,200.7,119.8z"/>
	<path class="st0" d="M342.9,119.8c-1.2-0.6-2.4-1.1-3.6-1.7c-5.1-2.5-8-8.2-6.7-13.2c1.5-6,6.8-10.1,12.6-9.8
		c5.6,0.3,10.7,4.3,11.7,9.2c1.2,6.3-1.6,11.8-7.3,14.1c-0.9,0.4-1.8,0.9-2.6,1.3C345.7,119.8,344.3,119.8,342.9,119.8z"/>
	<path class="st0" d="M404.9,119.8c-0.8-0.6-1.7-1.1-2.3-1.9c-1.8-2.1-1.8-4.3,0.2-6.3c1.9-1.8,4.1-1.8,6.1-0.2
		c1.8,1.4,1.9,4.7,0.4,6.4c-0.7,0.7-1.5,1.3-2.3,2C406.2,119.8,405.5,119.8,404.9,119.8z"/>
	<path class="st0" d="M334.2,53.1c0-9.2,0.1-18.4,0-27.5c0-3.2,1.1-4.6,4.4-4.4c3.7,0.1,7.5,0.1,11.2,0c2.7-0.1,4,1.1,4,3.8
		c0,18.9,0,37.9,0,56.8c0,2.7-1.4,3.9-4,3.8c-3.7,0-7.5-0.1-11.2,0c-3,0.1-4.3-1.2-4.2-4.3C334.3,71.9,334.2,62.5,334.2,53.1z"/>
	<path class="st0" d="M449.8,52.6c-2.4,2.2-4.8,4.2-7,6.4c-0.7,0.7-1.5,2-1.3,2.8c0.2,0.7,1.6,1.5,2.5,1.7c4.4,0.8,8.9,1.5,14.5,2.4
		c-1.9,2.3-3.1,4.8-5,6c-6.4,3.9-13,7.7-19.8,10.9c-2.7,1.3-6.1,1.5-9.1,1.3c-7.2-0.6-14.4-1.7-21.5-2.7c-2.4-0.3-3.4-2.6-1.8-5.2
		c1.3-2,3.1-4,5.2-5.2c4.4-2.5,9.1-4.6,13.8-6.5C430,60.5,439.9,56.6,449.8,52.6z"/>
	<path class="st0" d="M424.1,107.5c1.9-5.2,1.7-5.7-2.7-7.3c2.3-3.6,2.1-3.8-2.3-5.1c-1.3-0.4-2.3-1.9-3.6-3.1
		c16.5-5.2,34.2-6.8,45.2-23c-0.6,7.2-0.9,14.2-1.9,21c-0.2,1.7-2,3.6-3.6,4.7c-8.1,6.2-17.5,9.9-27.1,13.1
		C427,108.4,425.5,107.7,424.1,107.5z M431.9,104.4c-1.8-1-2.9-2.1-3.9-2.1c-0.8,0.1-1.5,1.6-2.3,2.4c0.9,0.8,1.8,2.1,2.8,2.2
		C429.3,107,430.3,105.6,431.9,104.4z M429,98.5c-1.4-0.9-2.3-2-3.1-1.9c-0.8,0.1-1.4,1.3-2.1,2.1c0.7,0.6,1.4,1.8,2,1.7
		C426.7,100.4,427.6,99.4,429,98.5z"/>
	<path class="st0" d="M214.2,41.3c-7.1,0-12.5-5-12.5-11.8c0-6.9,5.3-12.2,12.2-12.2c7.1,0,12.4,5.1,12.5,11.9
		C226.4,36.2,221.3,41.3,214.2,41.3z"/>
	<path class="st0" d="M416.6,105.8c3,0.6,4.6,1.6,4.1,3.8c-0.3,1.4-2.1,2.4-3.2,3.6c-1.2-1.2-3.1-2.2-3.3-3.5
		C414,108.6,415.8,107.1,416.6,105.8z"/>
	<path class="st0" d="M413.7,105.1c-2.1,1.3-3.3,2.7-4.4,2.6c-1-0.1-2.7-1.9-2.7-2.8c0.1-1.1,1.7-2.7,2.8-2.8
		C410.6,102.1,411.8,103.7,413.7,105.1z"/>
	<path class="st0" d="M398.5,101.4c1.8-1.1,2.7-2.3,3.7-2.3c0.8,0,1.6,1.4,2.3,2.2c-0.8,0.8-1.6,2.1-2.6,2.3
		C401.3,103.8,400.3,102.6,398.5,101.4z"/>
	<path class="st0" d="M408.8,93.9c1.1,1.6,2.3,2.5,2.3,3.4c0,0.7-1.3,2-2.1,2c-0.8,0-2.2-1.2-2.2-1.9
		C406.7,96.5,407.7,95.6,408.8,93.9z"/>
	<path class="st0" d="M418.5,101.1c-1.5,0.9-2.5,2-3.1,1.8c-0.8-0.2-1.6-1.4-1.8-2.3c-0.1-0.4,1.3-1.6,2-1.6
		C416.4,99.1,417.1,100.1,418.5,101.1z"/>
</g>
</svg>
