<svg xmlns="http://www.w3.org/2000/svg" xmlns:xlink="http://www.w3.org/1999/xlink" id="Layer_1" x="0" y="0" version="1.1" viewBox="0 0 116 116" xml:space="preserve" style="enable-background:new 0 0 116 116"><style type="text/css">.st0{fill:#fff}.st1{fill:none;stroke:#27b7fe;stroke-width:4;stroke-miterlimit:10}.st2{fill:#27b7fe}</style><path d="M92.8,93H23.9c-0.5,0-1.1-0.2-1.4-0.6c-0.4-0.4-0.5-1-0.5-1.5c1.1-13.6,12.7-24.3,26.4-24.3h19.8	c13.7,0,25.3,10.7,26.4,24.3c0,0.5-0.1,1.1-0.5,1.5C93.8,92.8,93.3,93,92.8,93z M26.2,89.1h64.4c-1.9-10.6-11.3-18.7-22.3-18.7H48.4	C37.5,70.5,28.1,78.5,26.2,89.1z M58.4,64.2c-9.1,0-16.4-7.4-16.4-16.4v-7.4C42,31.3,49.4,24,58.4,24s16.4,7.4,16.4,16.4v7.4	c0,1.1-0.9,1.9-1.9,1.9S71,48.8,71,47.8v-7.4c0-6.9-5.6-12.5-12.5-12.5S46,33.5,46,40.4v7.4c0,6.9,5.6,12.5,12.5,12.5	c4.4,0,8.5-2.3,10.8-6.1c0.6-0.9,3.9,1.1,3.3,2C69.5,61.2,64.1,64.2,58.4,64.2z" class="st0"/><circle cx="58.3" cy="58" r="53.5" class="st1"/><path d="M95.1,95H21.5c-0.6,0-1.2-0.2-1.5-0.7c-0.4-0.5-0.6-1.1-0.6-1.7c1.2-14.6,13.6-26,28.3-26h21.2	c14.6,0,27.1,11.4,28.3,26c0.1,0.6-0.2,1.2-0.6,1.6C96.3,94.7,95.7,95,95.1,95z M23.8,90.8h68.9c-2-11.4-12.1-20-23.9-20H47.7	C35.9,70.8,25.9,79.4,23.8,90.8z M58.3,64.2c-9.7,0-17.6-7.9-17.6-17.6v-7.9C40.7,29,48.6,21,58.3,21S75.9,29,75.9,38.6v7.9	c0,1.2-0.9,2.1-2.1,2.1c-1.2,0-2.1-0.9-2.1-2.1v-7.9c0-7.4-6.1-13.4-13.4-13.4s-13.4,6-13.4,13.4v7.9c0,7.4,6,13.4,13.4,13.4	c4.7,0,9.2-2.5,11.6-6.6c0.6-1,1.8-1.3,2.8-0.7c1,0.6,1.3,1.8,0.7,2.8C70.2,60.8,64.5,64.2,58.3,64.2z" class="st2"/></svg>