<?xml version="1.0" encoding="utf-8"?>
<!-- Generator: Adobe Illustrator 21.1.0, SVG Export Plug-In . SVG Version: 6.00 Build 0)  -->
<svg version="1.1" id="Layer_1" xmlns="http://www.w3.org/2000/svg" xmlns:xlink="http://www.w3.org/1999/xlink" x="0px" y="0px"
	 viewBox="0 0 90 84" style="enable-background:new 0 0 90 84;" xml:space="preserve">
<style type="text/css">
	.st0{fill:#FFFFFF;}
</style>
<title>3Artboard 22</title>
<path class="st0" d="M0,75c0-5,4-9,9-9s9,4,9,9s-4,9-9,9S0,80,0,75z M9,18c5,0,9-4,9-9s-4-9-9-9S0,4,0,9S4,18,9,18z M9,51
	c5,0,9-4,9-9s-4-9-9-9s-9,4-9,9S4,51,9,51z M39,15h45c3.3,0,6-2.7,6-6s-2.7-6-6-6H39c-3.3,0-6,2.7-6,6S35.7,15,39,15z M39,48h45
	c3.3,0,6-2.7,6-6s-2.7-6-6-6H39c-3.3,0-6,2.7-6,6S35.7,48,39,48z M39,81h45c3.3,0,6-2.7,6-6s-2.7-6-6-6H39c-3.3,0-6,2.7-6,6
	S35.7,81,39,81z"/>
</svg>
