<svg xmlns="http://www.w3.org/2000/svg" xmlns:xlink="http://www.w3.org/1999/xlink" id="Layer_1" x="0" y="0" version="1.1" viewBox="0 0 20.3 20.3" xml:space="preserve" style="enable-background:new 0 0 20.3 20.3"><style type="text/css">.st0{fill:#fff}</style><path d="M16.3,12.4c-1.3,0-2.5,0.7-3.2,1.7l-5.4-2.7c0.1-0.4,0.2-0.8,0.2-1.2S7.8,9.3,7.7,8.9l5.4-2.7	c0.7,1,1.9,1.7,3.2,1.7c2.2,0,3.9-1.8,3.9-3.9s-1.7-4-3.9-4s-3.9,1.8-3.9,3.9c0,0.4,0.1,0.8,0.2,1.2L7.2,7.9C6.5,6.9,5.3,6.2,4,6.2	c-2.2,0-4,1.8-4,3.9S1.8,14,3.9,14c1.3,0,2.5-0.7,3.2-1.7l5.4,2.7c-0.1,0.4-0.2,0.8-0.2,1.2c0,2.2,1.8,3.9,3.9,3.9s3.9-1.8,3.9-3.9	S18.5,12.4,16.3,12.4z M16.3,1.1c1.6,0,2.8,1.3,2.8,2.8s-1.3,2.8-2.8,2.8s-2.8-1.3-2.8-2.8S14.8,1.1,16.3,1.1z M3.9,12.9	c-1.6,0-2.8-1.3-2.8-2.8s1.3-2.8,2.8-2.8s2.8,1.3,2.8,2.8S5.5,12.9,3.9,12.9z M16.3,19.1c-1.6,0-2.8-1.3-2.8-2.8s1.3-2.8,2.8-2.8	s2.8,1.3,2.8,2.8S17.9,19.1,16.3,19.1z" class="st0"/></svg>